<svg width="1947" height="697" viewBox="0 0 1947 697" fill="none" xmlns="http://www.w3.org/2000/svg">
<g clip-path="url(#clip0_383_10)">
<path d="M1014.25 435.46V288.926C1014.25 268.463 1030.84 251.874 1051.31 251.874H1233.48C1253.94 251.874 1270.53 268.463 1270.53 288.926V435.46C1270.53 455.923 1253.94 472.511 1233.48 472.511H1051.31C1030.84 472.511 1014.25 455.923 1014.25 435.46Z" stroke="white" stroke-width="46.3143"/>
<path d="M353.89 435.46V288.926C353.89 268.463 370.479 251.874 390.942 251.874H573.111C593.574 251.874 610.163 268.463 610.163 288.926V435.46C610.163 455.923 593.574 472.511 573.111 472.511H390.942C370.479 472.511 353.89 455.923 353.89 435.46Z" stroke="white" stroke-width="46.3143"/>
<path d="M279.43 472.511H60.2087C39.7457 472.511 23.1572 455.923 23.1572 435.46V288.926C23.1572 268.463 39.7458 251.874 60.2087 251.874H242.378C262.841 251.874 279.43 268.463 279.43 288.926V472.511ZM279.43 472.511L279.431 590.13C279.431 610.593 262.843 627.182 242.38 627.182H92.7604C54.3205 627.182 23.1587 596.02 23.1587 557.58" stroke="white" stroke-width="46.3143"/>
<path d="M1923.51 472.511H1713.16C1692.7 472.511 1676.11 455.923 1676.11 435.46V362.193M1676.11 362.193V288.926C1676.11 268.463 1692.7 251.874 1713.16 251.874H1886.46C1906.93 251.874 1923.51 268.463 1923.51 288.926V307.033V325.141C1923.51 345.604 1906.93 362.193 1886.46 362.193H1676.11Z" stroke="white" stroke-width="46.3143"/>
<path d="M1601.65 251.546V435.46C1601.65 455.923 1585.06 472.511 1564.6 472.511H1382.04C1361.57 472.511 1344.99 455.923 1344.99 435.46V288.597C1344.99 268.134 1361.57 251.546 1382.04 251.546H1601.65ZM1601.65 251.546V0" stroke="white" stroke-width="46.3143"/>
<path d="M915.45 0.100586C995.596 0.100586 1060.57 65.0722 1060.57 145.219V485.849C1060.57 536.94 1034.16 581.862 994.259 607.72L1058.21 671.676L1047 682.887C1028.92 700.974 999.592 700.974 981.505 682.887L928.962 630.343C924.513 630.754 920.006 630.967 915.45 630.967H708.967C628.82 630.967 563.849 565.995 563.848 485.849V145.219C563.849 65.0723 628.82 0.100796 708.967 0.100586H915.45ZM708.967 92.7295C679.978 92.7297 656.477 116.23 656.477 145.219V485.849C656.477 514.838 679.978 538.338 708.967 538.338H836.957L795.927 497.308L807.137 486.097C825.224 468.01 854.549 468.01 872.635 486.097L924.157 537.618C949.002 533.47 967.939 511.871 967.939 485.849V145.219C967.939 116.23 944.439 92.7295 915.45 92.7295H708.967Z" fill="#C9FD48"/>
<path d="M1078.8 624.098L1063.67 574.451H1071.69L1082.42 612.462H1082.94L1093.54 574.451H1101.68L1112.16 612.333H1112.67L1123.41 574.451H1131.42L1116.29 624.098H1108.8L1097.94 585.958H1097.16L1086.3 624.098H1078.8ZM1160.63 625.132C1155.85 625.132 1151.72 624.076 1148.25 621.964C1144.8 619.831 1142.14 616.858 1140.27 613.044C1138.42 609.208 1137.49 604.748 1137.49 599.662C1137.49 594.577 1138.42 590.095 1140.27 586.217C1142.14 582.316 1144.75 579.278 1148.09 577.102C1151.45 574.904 1155.37 573.805 1159.86 573.805C1162.44 573.805 1165 574.236 1167.52 575.098C1170.04 575.96 1172.33 577.36 1174.4 579.3C1176.47 581.217 1178.12 583.76 1179.35 586.928C1180.57 590.095 1181.19 593.995 1181.19 598.628V601.86H1142.92V595.267H1173.43C1173.43 592.465 1172.87 589.966 1171.75 587.768C1170.65 585.57 1169.08 583.836 1167.03 582.564C1165.01 581.293 1162.61 580.657 1159.86 580.657C1156.82 580.657 1154.19 581.411 1151.97 582.92C1149.77 584.407 1148.08 586.346 1146.89 588.738C1145.71 591.129 1145.12 593.694 1145.12 596.43V600.826C1145.12 604.575 1145.76 607.754 1147.06 610.361C1148.37 612.947 1150.19 614.918 1152.52 616.276C1154.85 617.612 1157.55 618.28 1160.63 618.28C1162.64 618.28 1164.45 618 1166.06 617.439C1167.7 616.858 1169.11 615.996 1170.3 614.854C1171.48 613.69 1172.4 612.246 1173.04 610.523L1180.41 612.591C1179.64 615.091 1178.33 617.289 1176.5 619.185C1174.67 621.059 1172.41 622.525 1169.71 623.581C1167.02 624.615 1163.99 625.132 1160.63 625.132ZM1219.42 624.098V557.903H1227.05V582.338H1227.7C1228.26 581.476 1229.04 580.377 1230.03 579.041C1231.04 577.684 1232.48 576.477 1234.36 575.421C1236.25 574.344 1238.82 573.805 1242.05 573.805C1246.23 573.805 1249.92 574.85 1253.1 576.94C1256.29 579.03 1258.78 581.993 1260.57 585.829C1262.36 589.664 1263.25 594.189 1263.25 599.404C1263.25 604.662 1262.36 609.219 1260.57 613.076C1258.78 616.911 1256.3 619.885 1253.14 621.997C1249.97 624.087 1246.32 625.132 1242.18 625.132C1238.99 625.132 1236.44 624.604 1234.52 623.548C1232.6 622.471 1231.13 621.253 1230.09 619.896C1229.06 618.517 1228.26 617.375 1227.7 616.47H1226.79V624.098H1219.42ZM1226.92 599.275C1226.92 603.024 1227.47 606.331 1228.57 609.197C1229.67 612.042 1231.28 614.272 1233.39 615.888C1235.5 617.482 1238.09 618.28 1241.15 618.28C1244.33 618.28 1247 617.439 1249.13 615.759C1251.28 614.056 1252.9 611.772 1253.98 608.906C1255.08 606.019 1255.63 602.808 1255.63 599.275C1255.63 595.784 1255.09 592.638 1254.01 589.837C1252.95 587.014 1251.35 584.784 1249.19 583.146C1247.06 581.487 1244.38 580.657 1241.15 580.657C1238.04 580.657 1235.43 581.444 1233.32 583.017C1231.21 584.568 1229.62 586.744 1228.54 589.546C1227.46 592.325 1226.92 595.568 1226.92 599.275ZM1306.21 603.8V574.451H1313.84V624.098H1306.21V615.694H1305.69C1304.53 618.215 1302.72 620.359 1300.26 622.126C1297.81 623.871 1294.7 624.744 1290.95 624.744C1287.85 624.744 1285.09 624.065 1282.68 622.708C1280.27 621.329 1278.37 619.26 1276.99 616.502C1275.61 613.722 1274.92 610.221 1274.92 605.997V574.451H1282.55V605.48C1282.55 609.1 1283.56 611.988 1285.59 614.143C1287.63 616.297 1290.24 617.375 1293.41 617.375C1295.31 617.375 1297.23 616.89 1299.19 615.92C1301.18 614.951 1302.84 613.464 1304.17 611.46C1305.53 609.456 1306.21 606.902 1306.21 603.8ZM1327.81 624.098V574.451H1335.44V624.098H1327.81ZM1331.69 566.177C1330.2 566.177 1328.92 565.671 1327.84 564.658C1326.78 563.645 1326.26 562.428 1326.26 561.006C1326.26 559.583 1326.78 558.366 1327.84 557.353C1328.92 556.34 1330.2 555.834 1331.69 555.834C1333.17 555.834 1334.44 556.34 1335.5 557.353C1336.58 558.366 1337.12 559.583 1337.12 561.006C1337.12 562.428 1336.58 563.645 1335.5 564.658C1334.44 565.671 1333.17 566.177 1331.69 566.177ZM1357.03 557.903V624.098H1349.41V557.903H1357.03ZM1389.75 625.132C1385.62 625.132 1381.96 624.087 1378.8 621.997C1375.63 619.885 1373.15 616.911 1371.36 613.076C1369.57 609.219 1368.68 604.662 1368.68 599.404C1368.68 594.189 1369.57 589.664 1371.36 585.829C1373.15 581.993 1375.64 579.03 1378.83 576.94C1382.02 574.85 1385.7 573.805 1389.88 573.805C1393.11 573.805 1395.67 574.344 1397.54 575.421C1399.44 576.477 1400.88 577.684 1401.87 579.041C1402.89 580.377 1403.67 581.476 1404.23 582.338H1404.88V557.903H1412.51V624.098H1405.14V616.47H1404.23C1403.67 617.375 1402.88 618.517 1401.84 619.896C1400.81 621.253 1399.33 622.471 1397.41 623.548C1395.49 624.604 1392.94 625.132 1389.75 625.132ZM1390.79 618.28C1393.85 618.28 1396.43 617.482 1398.54 615.888C1400.66 614.272 1402.26 612.042 1403.36 609.197C1404.46 606.331 1405.01 603.024 1405.01 599.275C1405.01 595.568 1404.47 592.325 1403.39 589.546C1402.31 586.744 1400.72 584.568 1398.61 583.017C1396.5 581.444 1393.89 580.657 1390.79 580.657C1387.55 580.657 1384.86 581.487 1382.71 583.146C1380.57 584.784 1378.97 587.014 1377.89 589.837C1376.83 592.638 1376.31 595.784 1376.31 599.275C1376.31 602.808 1376.85 606.019 1377.92 608.906C1379.02 611.772 1380.64 614.056 1382.77 615.759C1384.93 617.439 1387.6 618.28 1390.79 618.28ZM1454.17 624.098V557.903H1461.8V582.338H1462.44C1463 581.476 1463.78 580.377 1464.77 579.041C1465.78 577.684 1467.23 576.477 1469.1 575.421C1471 574.344 1473.56 573.805 1476.79 573.805C1480.98 573.805 1484.66 574.85 1487.85 576.94C1491.04 579.03 1493.53 581.993 1495.32 585.829C1497.1 589.664 1498 594.189 1498 599.404C1498 604.662 1497.1 609.219 1495.32 613.076C1493.53 616.911 1491.05 619.885 1487.88 621.997C1484.71 624.087 1481.06 625.132 1476.92 625.132C1473.74 625.132 1471.18 624.604 1469.26 623.548C1467.35 622.471 1465.87 621.253 1464.84 619.896C1463.8 618.517 1463 617.375 1462.44 616.47H1461.54V624.098H1454.17ZM1461.67 599.275C1461.67 603.024 1462.22 606.331 1463.32 609.197C1464.42 612.042 1466.02 614.272 1468.13 615.888C1470.24 617.482 1472.83 618.28 1475.89 618.28C1479.08 618.28 1481.74 617.439 1483.87 615.759C1486.03 614.056 1487.64 611.772 1488.72 608.906C1489.82 606.019 1490.37 602.808 1490.37 599.275C1490.37 595.784 1489.83 592.638 1488.75 589.837C1487.7 587.014 1486.09 584.784 1483.94 583.146C1481.8 581.487 1479.12 580.657 1475.89 580.657C1472.79 580.657 1470.18 581.444 1468.07 583.017C1465.96 584.568 1464.36 586.744 1463.28 589.546C1462.21 592.325 1461.67 595.568 1461.67 599.275ZM1529.83 625.132C1525.35 625.132 1521.42 624.065 1518.04 621.932C1514.68 619.799 1512.05 616.814 1510.15 612.979C1508.28 609.143 1507.34 604.662 1507.34 599.533C1507.34 594.362 1508.28 589.847 1510.15 585.99C1512.05 582.133 1514.68 579.138 1518.04 577.005C1521.42 574.872 1525.35 573.805 1529.83 573.805C1534.32 573.805 1538.24 574.872 1541.6 577.005C1544.98 579.138 1547.61 582.133 1549.49 585.99C1551.38 589.847 1552.33 594.362 1552.33 599.533C1552.33 604.662 1551.38 609.143 1549.49 612.979C1547.61 616.814 1544.98 619.799 1541.6 621.932C1538.24 624.065 1534.32 625.132 1529.83 625.132ZM1529.83 618.28C1533.24 618.28 1536.04 617.407 1538.24 615.662C1540.44 613.916 1542.06 611.621 1543.12 608.777C1544.17 605.933 1544.7 602.851 1544.7 599.533C1544.7 596.215 1544.17 593.123 1543.12 590.257C1542.06 587.391 1540.44 585.075 1538.24 583.308C1536.04 581.541 1533.24 580.657 1529.83 580.657C1526.43 580.657 1523.63 581.541 1521.43 583.308C1519.23 585.075 1517.61 587.391 1516.55 590.257C1515.49 593.123 1514.97 596.215 1514.97 599.533C1514.97 602.851 1515.49 605.933 1516.55 608.777C1517.61 611.621 1519.23 613.916 1521.43 615.662C1523.63 617.407 1526.43 618.28 1529.83 618.28ZM1571.6 557.903V624.098H1563.97V557.903H1571.6ZM1604.32 625.132C1600.18 625.132 1596.53 624.087 1593.36 621.997C1590.2 619.885 1587.72 616.911 1585.93 613.076C1584.14 609.219 1583.25 604.662 1583.25 599.404C1583.25 594.189 1584.14 589.664 1585.93 585.829C1587.72 581.993 1590.21 579.03 1593.4 576.94C1596.58 574.85 1600.27 573.805 1604.45 573.805C1607.68 573.805 1610.24 574.344 1612.11 575.421C1614.01 576.477 1615.45 577.684 1616.44 579.041C1617.45 580.377 1618.24 581.476 1618.8 582.338H1619.45V557.903H1627.07V624.098H1619.71V616.47H1618.8C1618.24 617.375 1617.44 618.517 1616.41 619.896C1615.37 621.253 1613.9 622.471 1611.98 623.548C1610.06 624.604 1607.51 625.132 1604.32 625.132ZM1605.35 618.28C1608.41 618.28 1611 617.482 1613.11 615.888C1615.22 614.272 1616.83 612.042 1617.93 609.197C1619.03 606.331 1619.58 603.024 1619.58 599.275C1619.58 595.568 1619.04 592.325 1617.96 589.546C1616.88 586.744 1615.29 584.568 1613.18 583.017C1611.06 581.444 1608.46 580.657 1605.35 580.657C1602.12 580.657 1599.43 581.487 1597.27 583.146C1595.14 584.784 1593.54 587.014 1592.46 589.837C1591.4 592.638 1590.87 595.784 1590.87 599.275C1590.87 602.808 1591.41 606.019 1592.49 608.906C1593.59 611.772 1595.21 614.056 1597.34 615.759C1599.49 617.439 1602.17 618.28 1605.35 618.28ZM1686.45 625.132C1682.31 625.132 1678.66 624.087 1675.49 621.997C1672.33 619.885 1669.85 616.911 1668.06 613.076C1666.27 609.219 1665.38 604.662 1665.38 599.404C1665.38 594.189 1666.27 589.664 1668.06 585.829C1669.85 581.993 1672.34 579.03 1675.53 576.94C1678.71 574.85 1682.4 573.805 1686.58 573.805C1689.81 573.805 1692.36 574.344 1694.24 575.421C1696.14 576.477 1697.58 577.684 1698.57 579.041C1699.58 580.377 1700.37 581.476 1700.93 582.338H1701.58V557.903H1709.2V624.098H1701.84V616.47H1700.93C1700.37 617.375 1699.57 618.517 1698.54 619.896C1697.5 621.253 1696.03 622.471 1694.11 623.548C1692.19 624.604 1689.64 625.132 1686.45 625.132ZM1687.48 618.28C1690.54 618.28 1693.13 617.482 1695.24 615.888C1697.35 614.272 1698.96 612.042 1700.06 609.197C1701.16 606.331 1701.71 603.024 1701.71 599.275C1701.71 595.568 1701.17 592.325 1700.09 589.546C1699.01 586.744 1697.42 584.568 1695.31 583.017C1693.19 581.444 1690.59 580.657 1687.48 580.657C1684.25 580.657 1681.56 581.487 1679.4 583.146C1677.27 584.784 1675.67 587.014 1674.59 589.837C1673.53 592.638 1673 595.784 1673 599.275C1673 602.808 1673.54 606.019 1674.62 608.906C1675.72 611.772 1677.34 614.056 1679.47 615.759C1681.62 617.439 1684.3 618.28 1687.48 618.28ZM1724.23 624.098V574.451H1731.86V624.098H1724.23ZM1728.11 566.177C1726.63 566.177 1725.34 565.671 1724.27 564.658C1723.21 563.645 1722.68 562.428 1722.68 561.006C1722.68 559.583 1723.21 558.366 1724.27 557.353C1725.34 556.34 1726.63 555.834 1728.11 555.834C1729.6 555.834 1730.87 556.34 1731.93 557.353C1733 558.366 1733.54 559.583 1733.54 561.006C1733.54 562.428 1733 563.645 1731.93 564.658C1730.87 565.671 1729.6 566.177 1728.11 566.177ZM1765.87 643.749C1762.19 643.749 1759.02 643.275 1756.37 642.327C1753.72 641.401 1751.51 640.172 1749.74 638.642C1748 637.134 1746.61 635.518 1745.57 633.794L1751.65 629.528C1752.34 630.433 1753.21 631.467 1754.27 632.631C1755.32 633.816 1756.77 634.839 1758.6 635.701C1760.45 636.585 1762.88 637.026 1765.87 637.026C1769.88 637.026 1773.19 636.057 1775.8 634.117C1778.4 632.178 1779.71 629.14 1779.71 625.003V614.918H1779.06C1778.5 615.823 1777.7 616.944 1776.67 618.28C1775.66 619.594 1774.19 620.769 1772.27 621.803C1770.38 622.816 1767.81 623.322 1764.58 623.322C1760.57 623.322 1756.97 622.374 1753.78 620.478C1750.62 618.581 1748.11 615.823 1746.25 612.203C1744.42 608.583 1743.51 604.187 1743.51 599.016C1743.51 593.931 1744.4 589.503 1746.19 585.732C1747.98 581.939 1750.47 579.009 1753.65 576.94C1756.84 574.85 1760.53 573.805 1764.71 573.805C1767.94 573.805 1770.51 574.344 1772.4 575.421C1774.32 576.477 1775.78 577.684 1776.8 579.041C1777.83 580.377 1778.63 581.476 1779.19 582.338H1779.96V574.451H1787.33V625.52C1787.33 629.786 1786.36 633.255 1784.43 635.927C1782.51 638.621 1779.92 640.593 1776.67 641.842C1773.44 643.114 1769.84 643.749 1765.87 643.749ZM1765.61 616.47C1768.67 616.47 1771.26 615.769 1773.37 614.369C1775.48 612.968 1777.09 610.953 1778.19 608.325C1779.29 605.696 1779.84 602.55 1779.84 598.887C1779.84 595.31 1779.3 592.153 1778.22 589.416C1777.14 586.68 1775.55 584.536 1773.44 582.984C1771.32 581.433 1768.72 580.657 1765.61 580.657C1762.38 580.657 1759.69 581.476 1757.53 583.114C1755.4 584.751 1753.8 586.949 1752.72 589.707C1751.66 592.465 1751.13 595.525 1751.13 598.887C1751.13 602.334 1751.67 605.383 1752.75 608.034C1753.85 610.663 1755.47 612.731 1757.6 614.24C1759.75 615.726 1762.42 616.47 1765.61 616.47ZM1801.3 624.098V574.451H1808.93V624.098H1801.3ZM1805.18 566.177C1803.69 566.177 1802.41 565.671 1801.33 564.658C1800.27 563.645 1799.75 562.428 1799.75 561.006C1799.75 559.583 1800.27 558.366 1801.33 557.353C1802.41 556.34 1803.69 555.834 1805.18 555.834C1806.66 555.834 1807.93 556.34 1808.99 557.353C1810.07 558.366 1810.61 559.583 1810.61 561.006C1810.61 562.428 1810.07 563.645 1808.99 564.658C1807.93 565.671 1806.66 566.177 1805.18 566.177ZM1844.49 574.451V580.916H1818.76V574.451H1844.49ZM1826.26 562.557H1833.89V609.876C1833.89 612.031 1834.2 613.647 1834.82 614.724C1835.47 615.78 1836.29 616.491 1837.28 616.858C1838.29 617.202 1839.36 617.375 1840.48 617.375C1841.32 617.375 1842.01 617.332 1842.55 617.245C1843.09 617.138 1843.52 617.052 1843.84 616.987L1845.39 623.839C1844.88 624.033 1844.15 624.227 1843.23 624.421C1842.3 624.636 1841.13 624.744 1839.7 624.744C1837.55 624.744 1835.44 624.281 1833.37 623.354C1831.32 622.428 1829.62 621.016 1828.26 619.12C1826.93 617.224 1826.26 614.832 1826.26 611.945V562.557ZM1870.57 625.261C1867.42 625.261 1864.57 624.669 1862.01 623.484C1859.44 622.277 1857.41 620.542 1855.9 618.28C1854.39 615.996 1853.63 613.238 1853.63 610.005C1853.63 607.161 1854.19 604.855 1855.31 603.089C1856.44 601.3 1857.93 599.899 1859.81 598.887C1861.68 597.874 1863.75 597.12 1866.01 596.624C1868.3 596.107 1870.59 595.698 1872.9 595.396C1875.91 595.008 1878.36 594.717 1880.24 594.523C1882.13 594.308 1883.51 593.952 1884.37 593.457C1885.26 592.961 1885.7 592.099 1885.7 590.871V590.612C1885.7 587.423 1884.82 584.945 1883.08 583.178C1881.36 581.411 1878.74 580.528 1875.23 580.528C1871.58 580.528 1868.73 581.325 1866.66 582.92C1864.59 584.514 1863.14 586.217 1862.3 588.027L1855.06 585.441C1856.35 582.424 1858.07 580.075 1860.23 578.395C1862.4 576.692 1864.77 575.507 1867.34 574.839C1869.92 574.15 1872.47 573.805 1874.97 573.805C1876.56 573.805 1878.39 573.999 1880.46 574.387C1882.55 574.753 1884.57 575.518 1886.51 576.682C1888.47 577.845 1890.09 579.601 1891.39 581.95C1892.68 584.299 1893.33 587.445 1893.33 591.388V624.098H1885.7V617.375H1885.31C1884.79 618.452 1883.93 619.605 1882.72 620.833C1881.52 622.061 1879.91 623.106 1877.91 623.968C1875.9 624.83 1873.46 625.261 1870.57 625.261ZM1871.73 618.409C1874.75 618.409 1877.29 617.816 1879.36 616.631C1881.45 615.446 1883.03 613.916 1884.08 612.042C1885.16 610.167 1885.7 608.195 1885.7 606.127V599.145C1885.37 599.533 1884.66 599.889 1883.56 600.212C1882.49 600.514 1881.24 600.783 1879.81 601.02C1878.41 601.235 1877.05 601.429 1875.71 601.602C1874.4 601.753 1873.33 601.882 1872.51 601.99C1870.53 602.248 1868.67 602.668 1866.95 603.25C1865.25 603.81 1863.87 604.662 1862.81 605.804C1861.78 606.924 1861.26 608.454 1861.26 610.393C1861.26 613.044 1862.24 615.048 1864.2 616.405C1866.19 617.741 1868.7 618.409 1871.73 618.409ZM1914.88 557.903V624.098H1907.25V557.903H1914.88Z" fill="white"/>
</g>
<defs>
<clipPath id="clip0_383_10">
<rect width="1947" height="697" fill="white"/>
</clipPath>
</defs>
</svg>
