<svg width="52" height="73" viewBox="0 0 52 73" fill="none" xmlns="http://www.w3.org/2000/svg">
<path d="M36.5306 0C44.8575 0 51.6082 6.75039 51.6082 15.0774V50.468C51.6082 55.7763 48.8642 60.4435 44.7186 63.1301L51.363 69.775L50.1983 70.9398C48.3198 72.819 45.2727 72.819 43.3935 70.9398L37.9344 65.4806C37.4722 65.5233 37.0039 65.5454 36.5306 65.5454H15.0775C6.75042 65.5454 0.000103897 58.795 0 50.468V15.0774C0.000103897 6.7504 6.75042 2.18185e-05 15.0775 0H36.5306ZM15.0775 9.62391C12.0656 9.62393 9.62392 12.0656 9.62392 15.0774V50.468C9.62392 53.4799 12.0656 55.9215 15.0775 55.9215H28.3753L24.1124 51.6586L25.2771 50.4938C27.1563 48.6146 30.2031 48.6146 32.0822 50.4938L37.4352 55.8467C40.0165 55.4157 41.984 53.1716 41.984 50.468V15.0774C41.984 12.0656 39.5424 9.62391 36.5306 9.62391H15.0775Z" fill="#C9FD48"/>
</svg>
