<svg xmlns="http://www.w3.org/2000/svg" width="1200" height="800" viewBox="0 0 1200 800">
  <defs>
    <linearGradient id="bg5" x1="0%" y1="0%" x2="100%" y2="100%">
      <stop offset="0%" style="stop-color:#18181b"/>
      <stop offset="100%" style="stop-color:#27272a"/>
    </linearGradient>
  </defs>
  <rect width="1200" height="800" fill="url(#bg5)"/>
  <g opacity="0.1">
    <line x1="0" y1="200" x2="1200" y2="200" stroke="#C9FD48" stroke-width="1"/>
    <line x1="0" y1="400" x2="1200" y2="400" stroke="#C9FD48" stroke-width="1"/>
    <line x1="0" y1="600" x2="1200" y2="600" stroke="#C9FD48" stroke-width="1"/>
    <line x1="300" y1="0" x2="300" y2="800" stroke="#C9FD48" stroke-width="1"/>
    <line x1="600" y1="0" x2="600" y2="800" stroke="#C9FD48" stroke-width="1"/>
    <line x1="900" y1="0" x2="900" y2="800" stroke="#C9FD48" stroke-width="1"/>
  </g>
  <!-- Calendar icon -->
  <g transform="translate(500, 260)">
    <rect x="0" y="30" width="200" height="200" rx="20" fill="none" stroke="#C9FD48" stroke-width="4" opacity="0.8"/>
    <line x1="0" y1="80" x2="200" y2="80" stroke="#C9FD48" stroke-width="3" opacity="0.6"/>
    <line x1="50" y1="0" x2="50" y2="50" stroke="#C9FD48" stroke-width="4" opacity="0.7" stroke-linecap="round"/>
    <line x1="150" y1="0" x2="150" y2="50" stroke="#C9FD48" stroke-width="4" opacity="0.7" stroke-linecap="round"/>
    <!-- Date dots -->
    <circle cx="50" cy="120" r="10" fill="#C9FD48" opacity="0.3"/>
    <circle cx="100" cy="120" r="10" fill="#C9FD48" opacity="0.3"/>
    <circle cx="150" cy="120" r="10" fill="#C9FD48" opacity="0.5"/>
    <circle cx="50" cy="170" r="10" fill="#C9FD48" opacity="0.3"/>
    <circle cx="100" cy="170" r="10" fill="#C9FD48" opacity="0.3"/>
    <circle cx="150" cy="170" r="10" fill="#C9FD48" opacity="0.2"/>
  </g>
  <circle cx="150" cy="150" r="80" fill="none" stroke="#C9FD48" stroke-width="2" opacity="0.15"/>
  <circle cx="1050" cy="650" r="100" fill="none" stroke="#C9FD48" stroke-width="2" opacity="0.15"/>
  <circle cx="300" cy="650" r="40" fill="#C9FD48" opacity="0.1"/>
</svg>
