<svg xmlns="http://www.w3.org/2000/svg" width="1200" height="800" viewBox="0 0 1200 800">
  <defs>
    <linearGradient id="bg1" x1="0%" y1="0%" x2="100%" y2="100%">
      <stop offset="0%" style="stop-color:#18181b"/>
      <stop offset="100%" style="stop-color:#27272a"/>
    </linearGradient>
  </defs>
  <rect width="1200" height="800" fill="url(#bg1)"/>
  <!-- Grid pattern -->
  <g opacity="0.1">
    <line x1="0" y1="200" x2="1200" y2="200" stroke="#C9FD48" stroke-width="1"/>
    <line x1="0" y1="400" x2="1200" y2="400" stroke="#C9FD48" stroke-width="1"/>
    <line x1="0" y1="600" x2="1200" y2="600" stroke="#C9FD48" stroke-width="1"/>
    <line x1="300" y1="0" x2="300" y2="800" stroke="#C9FD48" stroke-width="1"/>
    <line x1="600" y1="0" x2="600" y2="800" stroke="#C9FD48" stroke-width="1"/>
    <line x1="900" y1="0" x2="900" y2="800" stroke="#C9FD48" stroke-width="1"/>
  </g>
  <!-- Shopping bag icon -->
  <g transform="translate(500, 280)">
    <rect x="0" y="60" width="200" height="200" rx="20" fill="none" stroke="#C9FD48" stroke-width="4" opacity="0.8"/>
    <path d="M60 60 L60 40 Q60 0 100 0 Q140 0 140 40 L140 60" fill="none" stroke="#C9FD48" stroke-width="4" opacity="0.8"/>
    <circle cx="70" cy="140" r="15" fill="#C9FD48" opacity="0.3"/>
    <circle cx="130" cy="140" r="15" fill="#C9FD48" opacity="0.3"/>
    <rect x="60" y="180" width="80" height="8" rx="4" fill="#C9FD48" opacity="0.5"/>
  </g>
  <!-- Decorative circles -->
  <circle cx="150" cy="150" r="80" fill="none" stroke="#C9FD48" stroke-width="2" opacity="0.15"/>
  <circle cx="1050" cy="650" r="100" fill="none" stroke="#C9FD48" stroke-width="2" opacity="0.15"/>
  <circle cx="1000" cy="150" r="40" fill="#C9FD48" opacity="0.1"/>
</svg>
